# xmcd
#
# Track frame offsets: 
#        150
#        24917
#        48616
#        64515
#        83147
#        106942
#        127984
#        145568
#        168118
#        187817
#        217278
#        243727
#        264741
#
# Disc length: 3741 seconds
#
# Revision: 0
# Processed by: cddbd v1.5.2PL0 Copyright (c) Steve Scherf et al.
# Submitted via: ExactAudioCopy v0.99pb5
#
DISCID=af0e9b0d
DTITLE=Dennis Locorriere - Live In Liverpool Disc 1
DYEAR=2004
DGENRE=
TTITLE0=01 Guess Again
TTITLE1=02 Wonderful Soup Stone
TTITLE2=03 It Feels Good
TTITLE3=04 The Heat
TTITLE4=05 The Ballad Of Lucy Jordan
TTITLE5=06 If Not You
TTITLE6=07 Only Sixteen
TTITLE7=08 Cookie and Lila
TTITLE8=09 If All It Takes Is Time
TTITLE9=10 Queen Of The Silver Dollar
TTITLE10=11 Yesterdays Blue's
TTITLE11=12 More Like The Movies
TTITLE12=13 When You're In Love With A Beautiful Woman
EXTD=
EXTT0=
EXTT1=
EXTT2=
EXTT3=
EXTT4=
EXTT5=
EXTT6=
EXTT7=
EXTT8=
EXTT9=
EXTT10=
EXTT11=
EXTT12=
PLAYORDER=
